<svg width="46" height="46" viewBox="0 0 46 46" fill="none" xmlns="http://www.w3.org/2000/svg">
<circle cx="23" cy="23" r="23" fill="white"/>
<path d="M33.5 19H32.27L29.72 11.98C29.5089 11.4011 29.1254 10.901 28.6211 10.5469C28.1168 10.1929 27.5162 10.002 26.9 10H24.5C23.675 10 23 10.675 23 11.5C23 12.325 23.675 13 24.5 13H26.9L29.09 19H21.875L21.335 17.5H21.47C22.295 17.5 22.97 16.825 22.97 16C22.97 15.175 22.295 14.5 21.47 14.5H17C16.175 14.5 15.5 15.175 15.5 16C15.5 16.825 16.175 17.5 17 17.5H18.125L20.855 25H19.85C19.19 21.655 16.385 19.18 12.875 19.015C8.675 18.805 5 22.3 5 26.5C5 30.7 8.3 34 12.5 34C16.19 34 19.175 31.465 19.85 28H26.15C26.81 31.345 29.615 33.82 33.125 33.985C37.325 34.18 41 30.7 41 26.485C41 22.3 37.7 19 33.5 19ZM14 28H16.73C16.1 29.845 14.33 31.12 12.2 30.985C9.965 30.85 8.105 28.96 8 26.71C7.895 24.085 9.905 22 12.5 22C14.495 22 16.13 23.245 16.73 25H14C13.175 25 12.5 25.675 12.5 26.5C12.5 27.325 13.175 28 14 28ZM26.15 25H24.05L22.955 22H27.5C26.84 22.87 26.36 23.875 26.15 25ZM33.32 31C31.01 30.91 29.06 28.945 29 26.62C28.97 25.18 29.585 23.92 30.575 23.08L31.505 25.63C31.79 26.41 32.645 26.815 33.425 26.53C34.205 26.245 34.61 25.39 34.325 24.61L33.38 22.015L33.395 22C33.9964 21.9795 34.5957 22.0811 35.1567 22.2986C35.7177 22.5162 36.2289 22.8451 36.6593 23.2657C37.0898 23.6863 37.4304 24.1897 37.6608 24.7456C37.8912 25.3015 38.0066 25.8983 38 26.5C38 29.08 35.93 31.09 33.32 31Z" fill="url(#paint0_linear_49_163)"/>
<defs>
<linearGradient id="paint0_linear_49_163" x1="23" y1="10" x2="23" y2="43" gradientUnits="userSpaceOnUse">
<stop stop-color="#FF4D00"/>
<stop offset="1" stop-color="#F20C0C"/>
</linearGradient>
</defs>
</svg>
