<svg width="32" height="32" viewBox="0 0 32 32" fill="none" xmlns="http://www.w3.org/2000/svg">
<path d="M15.9997 10.6666C13.053 10.6666 10.6663 13.0533 10.6663 15.9999C10.6663 18.9466 13.053 21.3333 15.9997 21.3333C18.9463 21.3333 21.333 18.9466 21.333 15.9999C21.333 13.0533 18.9463 10.6666 15.9997 10.6666ZM27.9197 14.6666C27.6177 11.9627 26.4052 9.44197 24.4814 7.51818C22.5576 5.59439 20.0368 4.38193 17.333 4.07992V2.66659C17.333 1.93325 16.733 1.33325 15.9997 1.33325C15.2663 1.33325 14.6663 1.93325 14.6663 2.66659V4.07992C11.9625 4.38193 9.44173 5.59439 7.51793 7.51818C5.59414 9.44197 4.38169 11.9627 4.07967 14.6666H2.66634C1.93301 14.6666 1.33301 15.2666 1.33301 15.9999C1.33301 16.7333 1.93301 17.3333 2.66634 17.3333H4.07967C4.38169 20.0371 5.59414 22.5579 7.51793 24.4817C9.44173 26.4055 11.9625 27.6179 14.6663 27.9199V29.3333C14.6663 30.0666 15.2663 30.6666 15.9997 30.6666C16.733 30.6666 17.333 30.0666 17.333 29.3333V27.9199C20.0368 27.6179 22.5576 26.4055 24.4814 24.4817C26.4052 22.5579 27.6177 20.0371 27.9197 17.3333H29.333C30.0663 17.3333 30.6663 16.7333 30.6663 15.9999C30.6663 15.2666 30.0663 14.6666 29.333 14.6666H27.9197ZM15.9997 25.3333C10.8397 25.3333 6.66634 21.1599 6.66634 15.9999C6.66634 10.8399 10.8397 6.66659 15.9997 6.66659C21.1597 6.66659 25.333 10.8399 25.333 15.9999C25.333 21.1599 21.1597 25.3333 15.9997 25.3333Z" fill="url(#paint0_linear_42_160)"/>
<defs>
<linearGradient id="paint0_linear_42_160" x1="16.0673" y1="1.33325" x2="16.0673" y2="30.6666" gradientUnits="userSpaceOnUse">
<stop stop-color="#FF1400"/>
<stop offset="1" stop-color="#EE2211"/>
</linearGradient>
</defs>
</svg>
