<svg width="5072" height="1193" viewBox="0 0 5072 1193" fill="none" xmlns="http://www.w3.org/2000/svg">
<g clip-path="url(#clip0_4_76)">
<path d="M188.772 491.963C212.931 456.173 246.036 427.094 288.09 404.725C331.038 382.357 379.802 371.172 434.381 371.172C497.909 371.172 555.173 386.83 606.173 418.146C658.069 449.463 698.78 494.2 728.307 552.359C758.728 609.623 773.939 676.282 773.939 752.336C773.939 828.389 758.728 895.943 728.307 954.996C698.78 1013.16 658.069 1058.34 606.173 1090.55C555.173 1122.76 497.909 1138.87 434.381 1138.87C378.907 1138.87 330.143 1128.13 288.09 1106.66C246.931 1084.29 213.826 1055.66 188.772 1020.76V1126.79H0.875V133.616H188.772V491.963ZM582.015 752.336C582.015 707.598 572.62 669.124 553.831 636.913C535.935 603.807 511.777 578.754 481.356 561.754C451.993 544.795 418.63 535.993 384.723 536.253C350.722 536.253 318.511 545.201 288.09 563.096C258.563 580.096 234.405 605.149 215.615 638.255C197.72 671.361 188.772 710.282 188.772 755.02C188.772 799.757 197.72 838.679 215.615 871.785C234.405 904.891 258.563 930.391 288.09 948.286C318.511 965.286 350.722 973.786 384.723 973.786C419.618 973.786 451.829 964.839 481.356 946.944C511.777 929.049 535.935 903.548 553.831 870.443C572.62 837.337 582.015 797.968 582.015 752.336ZM1005.75 294.671C972.648 294.671 944.911 284.381 922.542 263.802C901.068 242.328 890.331 215.933 890.331 184.617C890.331 153.301 901.068 127.353 922.542 106.774C944.911 85.2995 972.648 74.5625 1005.75 74.5625C1038.86 74.5625 1066.15 85.2995 1087.62 106.774C1109.99 127.353 1121.18 153.301 1121.18 184.617C1121.18 215.933 1109.99 242.328 1087.62 263.802C1066.15 284.381 1038.86 294.671 1005.75 294.671ZM1098.36 383.251V1126.79H910.463V383.251H1098.36ZM1724.24 1126.79L1471.92 810.047V1126.79H1284.02V133.616H1471.92V698.651L1721.55 383.251H1965.82L1638.34 756.362L1968.5 1126.79H1724.24ZM1982.19 755.02C1982.19 678.071 1997.85 610.965 2029.16 553.701C2060.48 495.542 2103.87 450.805 2159.35 419.489C2214.82 387.278 2278.35 371.172 2349.93 371.172C2442.09 371.172 2518.14 394.436 2578.09 440.963C2638.93 486.595 2679.64 551.017 2700.22 634.229H2497.6C2486.86 602.018 2468.52 576.965 2442.57 559.07C2417.52 540.28 2386.2 530.885 2348.62 530.885C2294.94 530.885 2252.44 550.57 2221.12 589.939C2189.81 628.413 2174.15 683.44 2174.15 755.02C2174.15 825.705 2189.81 880.732 2221.12 920.101C2252.44 958.576 2294.94 977.813 2348.62 977.813C2424.68 977.813 2474.34 943.812 2497.6 875.811H2700.26C2679.68 956.339 2638.97 1020.31 2578.13 1067.73C2517.28 1115.16 2441.23 1138.87 2349.97 1138.87C2278.39 1138.87 2214.86 1123.21 2159.38 1091.89C2104.35 1060.14 2059.27 1013.66 2029.2 957.681C1997.88 899.522 1982.19 831.968 1982.19 755.02ZM2988.52 498.674C3011.56 460.405 3043.87 428.555 3082.47 406.067C3121.84 383.699 3166.58 372.514 3216.68 372.514V569.807H3167.02C3107.97 569.807 3063.23 583.675 3032.81 611.412C3003.28 639.15 2988.52 687.466 2988.52 756.362V1126.79H2800.62V383.251H2988.52V498.674ZM3792.83 1020.76C3772.25 1054.76 3738.69 1083.39 3692.17 1106.66C3645.64 1129.03 3595.53 1140.21 3541.85 1140.21C3495.32 1140.21 3453.27 1130.81 3415.69 1112.03C3378.11 1093.24 3348.58 1067.29 3327.11 1034.18C3305.63 1001.08 3294.9 963.049 3294.9 920.101C3294.9 851.206 3320.4 794.836 3371.4 750.993C3423.29 707.151 3500.69 685.229 3603.59 685.229H3792.83C3791.04 637.808 3777.17 600.228 3751.22 572.491C3726.17 543.859 3691.27 529.543 3646.53 529.543C3607.17 529.543 3574.51 540.28 3548.56 561.754C3522.61 582.333 3506.06 611.413 3498.9 648.992H3311C3319.95 595.307 3339.19 547.438 3368.71 505.385C3398.87 462.66 3439.56 428.447 3486.82 406.067C3536.03 381.909 3591.06 369.83 3651.9 369.83C3714.53 369.83 3770.9 382.804 3821.01 408.752C3870.78 433.54 3912.27 472.238 3940.46 520.148C3969.09 568.464 3983.41 625.281 3983.41 690.598V1126.79H3792.83V1020.76ZM3596.88 988.55C3628.19 988.55 3658.61 981.839 3688.14 968.418C3718.56 954.997 3743.61 934.865 3763.3 908.022C3782.98 881.18 3792.83 849.416 3792.83 812.731V807.363H3614.32C3571.38 807.363 3539.16 815.863 3517.69 832.863C3497.11 849.863 3486.82 872.232 3486.82 899.969C3486.82 926.812 3496.22 948.286 3515.01 964.391C3534.69 980.497 3561.98 988.55 3596.88 988.55ZM4379.67 537.596V1126.79H4189.09V537.596H4104.53V383.251H4189.09V345.672C4189.09 254.407 4215.04 187.301 4266.93 144.353C4318.83 101.405 4397.12 81.2731 4501.8 83.9574V242.328C4456.17 241.433 4424.41 249.039 4406.51 265.144C4388.62 281.25 4379.67 310.329 4379.67 352.382V383.251H4623.86V199.38H4813.1V383.251H4979.52V537.596H4813.1V897.285C4813.1 922.338 4818.92 940.681 4830.55 952.312C4843.08 963.049 4863.65 968.418 4892.29 968.418H4979.52V1126.79H4861.42C4703.05 1126.79 4623.86 1049.84 4623.86 895.943V537.596H4379.67Z" fill="black"/>
</g>
<defs>
<clipPath id="clip0_4_76">
<rect width="5070.25" height="1193" fill="white" transform="translate(0.875)"/>
</clipPath>
</defs>
</svg>
